0
SECTION
2
HEADER
9
$INSUNITS
70
4
9
$ACADVER
1
AC1014
9
$HANDSEED
5
FFFF
0
ENDSEC
0
SECTION
2
TABLES
0
TABLE
2
VPORT
5
8
100
AcDbSymbolTable
0
ENDTAB
0
TABLE
2
LTYPE
5
5
100
AcDbSymbolTable
0
LTYPE
5
14
100
AcDbSymbolTableRecord
100
AcDbLinetypeTableRecord
2
BYBLOCK
70
0
0
LTYPE
5
15
100
AcDbSymbolTableRecord
100
AcDbLinetypeTableRecord
2
BYLAYER
70
0
0
LTYPE
5
16
100
AcDbSymbolTableRecord
100
AcDbLinetypeTableRecord
2
DASHED
70
0
3
Dashed __ __ __ __ __ __ __ __ __ __ __ __ __ _
72
65
73
2
40
0.75
49
0.5
74
0
49
-0.25
74
0
0
ENDTAB
0
TABLE
2
LAYER
5
2
100
AcDbSymbolTable
70
2
0
LAYER
5
50
100
AcDbSymbolTableRecord
100
AcDbLayerTableRecord
2
0
70
0
62
7
6
CONTINUOUS
0
ENDTAB
0
TABLE
2
STYLE
5
3
100
AcDbSymbolTable
70
1
0
STYLE
5
11
100
AcDbSymbolTableRecord
100
AcDbTextStyleTableRecord
2
STANDARD
70
0
0
ENDTAB
0
TABLE
2
VIEW
5
6
100
AcDbSymbolTable
70
0
0
ENDTAB
0
TABLE
2
UCS
5
7
100
AcDbSymbolTable
70
0
0
ENDTAB
0
TABLE
2
APPID
5
9
100
AcDbSymbolTable
70
2
0
APPID
5
12
100
AcDbSymbolTableRecord
100
AcDbRegAppTableRecord
2
ACAD
70
0
0
ENDTAB
0
TABLE
2
DIMSTYLE
5
A
100
AcDbSymbolTable
70
1
0
ENDTAB
0
TABLE
2
BLOCK_RECORD
5
1
100
AcDbSymbolTable
70
1
0
BLOCK_RECORD
5
1F
100
AcDbSymbolTableRecord
100
AcDbBlockTableRecord
2
*MODEL_SPACE
0
BLOCK_RECORD
5
1B
100
AcDbSymbolTableRecord
100
AcDbBlockTableRecord
2
*PAPER_SPACE
0
ENDTAB
0
ENDSEC
0
SECTION
2
BLOCKS
0
BLOCK
5
20
100
AcDbEntity
100
AcDbBlockBegin
2
*MODEL_SPACE
0
ENDBLK
5
21
100
AcDbEntity
100
AcDbBlockEnd
0
BLOCK
5
1C
100
AcDbEntity
100
AcDbBlockBegin
2
*PAPER_SPACE
0
ENDBLK
5
1D
100
AcDbEntity
100
AcDbBlockEnd
0
ENDSEC
0
SECTION
2
ENTITIES
0
CIRCLE
5
100
100
AcDbEntity
8
0
100
AcDbCircle
10
-128.00000000000006
20
-73.749284603816989
30
0
40
6.4999999999999964
210
0
220
0
230
1
0
LWPOLYLINE
5
101
100
AcDbEntity
8
0
100
AcDbPolyline
90
8
70
1
43
0.0
10
77
20
0.25071539618300109
42
0.41421356237309132
10
78
20
1.2507153961830153
10
77.999999999999986
20
91.250715396183011
42
0.41421356237309764
10
77
20
92.250715396182997
10
-77.000000000000071
20
92.250715396183054
42
0.41421356237310025
10
-78.000000000000085
20
91.250715396183054
10
-78.000000000000014
20
1.250715396183004
42
0.41421356237309537
10
-77.000000000000014
20
0.25071539618300637
0
CIRCLE
5
102
100
AcDbEntity
8
0
100
AcDbCircle
10
63.999999999999972
20
-27.249284603816967
30
0
40
6.4999999999999964
210
0
220
0
230
1
0
LWPOLYLINE
5
103
100
AcDbEntity
8
0
100
AcDbPolyline
90
8
70
1
43
0.0
10
-121.49999999999993
20
90.250715396182969
10
-121.49999999999993
20
80.250715396183011
42
0.41421356237308116
10
-119.99999999999993
20
78.750715396183011
10
-109.99999999999994
20
78.750715396183011
42
0.41421356237311585
10
-108.49999999999994
20
80.250715396183011
10
-108.49999999999996
20
90.250715396182969
42
0.41421356237309159
10
-110
20
91.750715396182997
10
-119.99999999999993
20
91.750715396182997
42
0.41421356237308116
0
CIRCLE
5
104
100
AcDbEntity
8
0
100
AcDbCircle
10
-4.1271583154647569e-14
20
-27.249284603816967
30
0
40
6.4999999999999964
210
0
220
0
230
1
0
CIRCLE
5
105
100
AcDbEntity
8
0
100
AcDbCircle
10
63.999999999999972
20
-73.749284603816989
30
0
40
6.4999999999999964
210
0
220
0
230
1
0
CIRCLE
5
106
100
AcDbEntity
8
0
100
AcDbCircle
10
-64.000000000000043
20
-27.249284603816967
30
0
40
6.4999999999999964
210
0
220
0
230
1
0
LWPOLYLINE
5
107
100
AcDbEntity
8
0
100
AcDbPolyline
90
8
70
1
43
0.0
10
-135
20
106.25071539618301
42
0.41421356237309503
10
-145
20
96.250715396183011
10
-145
20
-76.24928460381696
42
0.41421356237309687
10
-135
20
-86.24928460381696
10
135
20
-86.249284603816946
42
0.41421356237309348
10
145
20
-76.24928460381696
10
145.00000000000003
20
96.250715396182969
42
0.41421356237309398
10
135
20
106.25071539618301
0
CIRCLE
5
108
100
AcDbEntity
8
0
100
AcDbCircle
10
127.99999999999997
20
-73.749284603816989
30
0
40
6.4999999999999964
210
0
220
0
230
1
0
CIRCLE
5
109
100
AcDbEntity
8
0
100
AcDbCircle
10
-4.1271583154647569e-14
20
-73.749284603816989
30
0
40
6.4999999999999964
210
0
220
0
230
1
0
CIRCLE
5
110
100
AcDbEntity
8
0
100
AcDbCircle
10
-128.00000000000006
20
-27.249284603816967
30
0
40
6.4999999999999964
210
0
220
0
230
1
0
CIRCLE
5
111
100
AcDbEntity
8
0
100
AcDbCircle
10
-114.99999999999997
20
50.250715396183011
30
0
40
16
210
0
220
0
230
1
0
CIRCLE
5
112
100
AcDbEntity
8
0
100
AcDbCircle
10
-64.000000000000043
20
-73.749284603816989
30
0
40
6.4999999999999964
210
0
220
0
230
1
0
CIRCLE
5
113
100
AcDbEntity
8
0
100
AcDbCircle
10
127.99999999999997
20
-27.249284603816967
30
0
40
6.4999999999999964
210
0
220
0
230
1
0
CIRCLE
5
114
100
AcDbEntity
8
0
100
AcDbCircle
10
127.99999999999997
20
46.750715396183004
30
0
40
6.5
210
0
220
0
230
1
0
LWPOLYLINE
5
115
100
AcDbEntity
8
0
100
AcDbPolyline
90
8
70
1
43
0.0
10
93.000000000000043
20
-1.7492846038169945
10
-93
20
-1.7492846038169945
42
-0.41421356237309553
10
-95
20
0.25071539618299843
10
-95
20
106.25071539618305
42
-0.41421356237309681
10
-92.000000000000014
20
109.25071539618307
10
91.999999999999972
20
109.25071539618307
42
-0.41421356237308637
10
95
20
106.25071539618297
10
95
20
0.25071539618299399
42
-0.41421356237309853
0
CIRCLE
5
116
100
AcDbEntity
8
0
100
AcDbCircle
10
-86.500000000000043
20
6.7507153961829625
30
0
40
2.8875000000000002
210
0
220
0
230
1
0
CIRCLE
5
117
100
AcDbEntity
8
0
100
AcDbCircle
10
86.500000000000043
20
6.7507153961829625
30
0
40
2.8875000000000002
210
0
220
0
230
1
0
CIRCLE
5
118
100
AcDbEntity
8
0
100
AcDbCircle
10
86.500000000000043
20
97.750715396183068
30
0
40
2.8875000000000002
210
0
220
0
230
1
0
CIRCLE
5
119
100
AcDbEntity
8
0
100
AcDbCircle
10
-86.5
20
97.750715396183011
30
0
40
2.8875000000000002
210
0
220
0
230
1
0
ENDSEC
0
SECTION
2
OBJECTS
0
DICTIONARY
5
C
100
AcDbDictionary
3
ACAD_GROUP
350
D
3
ACAD_MLINESTYLE
350
17
0
DICTIONARY
5
D
100
AcDbDictionary
0
DICTIONARY
5
1A
330
C
100
AcDbDictionary
0
DICTIONARY
5
17
100
AcDbDictionary
0
ENDSEC
0
EOF
